<svg width="178" height="24" viewBox="0 0 178 24" fill="none" xmlns="http://www.w3.org/2000/svg">
    <path fill-rule="evenodd" clip-rule="evenodd" fill="black" d="M28.5325 20.7363C41.1309 20.7363 49.6862 18.0721 49.6862 16.4605C49.6862 14.484 42.0092 13.0274 30.3965 12.4054C18.3107 11.7581 8.45724 9.89279 8.45724 6.22259C8.45724 2.55116 18.7209 0.0396118 30.4016 0.0396118C42.2872 0.0396118 49.6536 2.56352 49.6658 2.97951C49.67 3.12893 49.0465 3.09085 47.4331 2.99232C45.0501 2.84679 40.5077 2.56939 32.6386 2.56939C22.9903 2.56939 14.4514 4.8425 14.4514 6.51712C14.4514 8.68886 24.3611 9.69252 34.5248 10.5367C46.0243 11.4922 54.7158 13.4173 54.7158 16.7571C54.7158 20.5418 44.463 23.9807 27.4162 23.9807C12.8196 23.9807 0.116821 20.4746 0.116821 16.7571C0.116821 15.523 0.807179 14.8524 1.46569 14.326C2.10177 13.8176 2.858 13.54 2.40389 14.326C2.16687 14.7362 1.99493 15.2971 2.03127 15.6879C2.26938 18.2642 10.7508 20.7363 28.5325 20.7363ZM125.556 21.5051C128.294 21.5051 130.3 20.0215 130.3 18.4163C130.3 16.8724 127.703 15.4207 124.92 15.5702C122.312 15.7102 121.34 16.8937 121.34 18.5745C121.34 20.1888 122.83 21.5051 125.556 21.5051ZM69.7032 18.1928C69.7032 16.9314 67.584 15.814 64.5811 15.814C61.7127 15.814 60.3864 16.9598 60.3864 18.3113C60.3864 19.6162 62.3246 20.809 65.2513 20.809C68.188 20.8091 69.7032 19.4928 69.7032 18.1928ZM110.349 20.3652C110.344 20.3708 110.339 20.377 110.334 20.384C110.078 20.71 108.701 22.463 105.593 22.463C103.054 22.463 100.163 20.9694 97.9416 19.8218C96.5556 19.1057 95.4303 18.5243 94.8136 18.5243C93.6429 18.5243 92.9203 19.6761 92.2566 20.734C91.693 21.6324 91.1719 22.463 90.4549 22.463C89.2833 22.463 87.7517 21.2698 86.3581 20.184C85.1946 19.2775 84.1273 18.4459 83.4457 18.4459C82.9631 18.4459 82.0937 19.0878 81.05 19.8585C79.4827 21.0156 77.5224 22.463 75.8883 22.463C75.4579 22.463 74.9713 22.3162 74.3982 22.1432C73.577 21.8953 72.5781 21.5938 71.3121 21.5938C70.6179 21.5938 69.9868 21.748 69.2157 21.9364C68.0047 22.2322 66.4483 22.6125 63.7591 22.6125C62.6533 22.6125 56.1883 22.2234 56.1883 18.4909C56.1883 17.7864 57.2195 13.9702 64.0668 13.9702C65.9728 13.9702 67.4988 14.5316 68.4814 14.8932C68.7516 14.9926 68.9807 15.0769 69.1653 15.1302C70.6435 15.5555 71.3339 15.3244 71.8874 15.1393C72.1378 15.0555 72.3602 14.9811 72.6147 14.9811C73.4274 14.9811 73.4273 16.0562 73.4273 16.3115V16.3164C73.4273 17.4868 75.2529 20.3811 77.2906 20.3811C79.5676 20.3811 81.0805 18.5192 82.2317 17.1024C82.9388 16.2323 83.5094 15.53 84.0369 15.53C84.4422 15.53 85.2138 16.1011 86.1159 16.7688C87.3854 17.7085 88.9134 18.8395 90.0427 18.8395C91.1878 18.8395 91.9524 17.9597 92.7194 17.0771C93.4912 16.1891 94.2654 15.2982 95.4323 15.2982C96.2958 15.2982 98.3583 16.532 100.532 17.8325C102.955 19.2819 105.517 20.8142 106.712 20.8142C108.538 20.8142 109.177 19.5905 109.177 19.5905C105.702 17.0532 105.298 13.2295 105.298 11.7907C105.298 11.7907 98.091 12.0834 97.9758 11.9446C97.8619 11.8057 98.8969 9.72976 99.075 9.62113C99.2533 9.51203 105.239 10.052 105.239 10.052C105.239 10.052 105.216 6.68818 105.36 6.52639C105.504 6.36429 108.573 5.96406 108.747 6.05956C108.921 6.15475 108.656 10.2916 108.656 10.2916C108.656 10.2916 118.949 10.9783 119.015 11.0094C119.081 11.0412 119.047 11.3647 118.946 11.4427C118.846 11.5206 108.748 11.6866 108.748 11.6866C108.748 20.6642 119.359 21.4915 119.359 21.4915C119.359 21.4915 116.819 20.2746 116.819 18.2574C116.819 15.7477 121.113 14.1638 125.825 14.1638C133.453 14.1638 134.422 18.9852 134.336 18.9852C135.023 18.9852 136.342 18.0441 137.645 17.1142C138.917 16.2063 140.174 15.309 140.814 15.309C141.48 15.309 142.233 16.1389 143.084 17.0777C144.193 18.3004 145.47 19.708 146.942 19.708C147.744 19.708 148.526 18.8922 149.343 18.0405C150.235 17.1103 151.168 16.1373 152.213 16.1373C153.819 16.1373 155.479 17.2911 157.107 18.422C158.671 19.509 160.205 20.5749 161.631 20.5749C162.304 20.5749 163.527 19.3233 164.789 18.0312L164.789 18.0311C166.136 16.6526 167.528 15.228 168.345 15.228C168.896 15.228 169.575 15.9572 170.539 16.9934C172.011 18.5755 174.149 20.8733 177.515 22.383C177.546 22.3971 177.6 22.4818 177.64 22.5459C177.662 22.5797 177.679 22.6077 177.688 22.6165C177.669 22.619 177.279 22.6217 176.577 22.6217C174.164 22.6217 171.828 20.6223 170.189 19.2185C169.301 18.4591 168.618 17.874 168.236 17.874C167.387 17.874 166.418 18.8641 165.38 19.9245C164.183 21.1469 162.895 22.4629 161.594 22.4629C160.272 22.4629 158.337 21.5386 156.571 20.6954C155.09 19.9884 153.729 19.3385 152.949 19.3385C151.565 19.3385 150.447 20.1912 149.379 21.0057C148.403 21.7503 147.469 22.4629 146.411 22.4629C145.044 22.4629 143.416 20.8428 142.107 19.5411C141.228 18.6669 140.494 17.9363 140.08 17.9363C138.732 17.9363 137.57 18.6468 136.148 19.5168C133.903 20.8899 131.008 22.6602 125.708 22.6602C125.65 22.6602 125.528 22.6557 125.336 22.6485L125.336 22.6485C124.639 22.6225 123.023 22.5621 120.218 22.5621C115.698 22.5622 112.554 21.5597 110.365 20.3452C110.36 20.3504 110.355 20.3571 110.349 20.3652ZM170.414 11.4463C170.444 11.2758 170.356 10.915 169.844 10.506C169.373 10.13 168.672 9.8319 167.883 9.73038C166.339 9.53119 165.557 10.177 165.508 10.5288C165.463 10.8634 166.013 11.747 167.507 12.1288C169.184 12.5569 170.329 11.9421 170.414 11.4463Z"/>
    </svg>